<svg xmlns="http://www.w3.org/2000/svg" xmlns:xlink="http://www.w3.org/1999/xlink" width="2000" zoomAndPan="magnify" viewBox="0 0 1500 1499.999933" height="2000" preserveAspectRatio="xMidYMid meet" version="1.0"><defs><clipPath id="302c5aff84"><path d="M 893 620 L 1235.566406 620 L 1235.566406 1117 L 893 1117 Z M 893 620 " clip-rule="nonzero"/></clipPath><clipPath id="e319643038"><path d="M 264.316406 535 L 999 535 L 999 1299.929688 L 264.316406 1299.929688 Z M 264.316406 535 " clip-rule="nonzero"/></clipPath><clipPath id="c31d9feb7d"><path d="M 371 535 L 999 535 L 999 1299.929688 L 371 1299.929688 Z M 371 535 " clip-rule="nonzero"/></clipPath><clipPath id="7ef3b5ba6a"><path d="M 264.316406 432 L 999 432 L 999 619 L 264.316406 619 Z M 264.316406 432 " clip-rule="nonzero"/></clipPath><clipPath id="daa9dfd730"><path d="M 299 200.429688 L 982 200.429688 L 982 598 L 299 598 Z M 299 200.429688 " clip-rule="nonzero"/></clipPath></defs><g clip-path="url(#302c5aff84)"><path fill="#804828" d="M 974.210938 627.4375 C 974.210938 627.4375 986.351562 651.242188 1011.546875 640.5625 C 1036.742188 629.878906 1057.972656 616.695312 1113.550781 621.214844 C 1169.128906 625.730469 1221.046875 653.257812 1233.738281 719.296875 C 1246.367188 785.03125 1196.402344 880.183594 1133.746094 935.972656 C 1071.089844 991.757812 964.8125 1076.902344 893.25 1116.878906 L 915.398438 999.082031 C 915.398438 999.082031 936.871094 1018.003906 975.246094 994.871094 C 1013.621094 971.738281 1109.585938 898.128906 1141.859375 842.34375 C 1174.132812 786.558594 1192.375 732.96875 1154 694.027344 C 1120.261719 659.789062 1006.542969 669.859375 949.988281 784.480469 L 974.210938 627.378906 Z M 974.210938 627.4375 " fill-opacity="1" fill-rule="nonzero"/></g><path fill="#8b4f2c" d="M 1071.640625 643.492188 C 1075.179688 654.113281 1124.351562 645.75 1161.6875 669.492188 C 1202.867188 695.617188 1208.417969 733.882812 1216.535156 734.554688 C 1224.648438 735.226562 1218.851562 689.695312 1185.542969 662.65625 C 1140.273438 625.914062 1067.246094 630.367188 1071.578125 643.492188 Z M 1071.640625 643.492188 " fill-opacity="1" fill-rule="nonzero"/><g clip-path="url(#e319643038)"><path fill="#8b4f2c" d="M 631.585938 535.582031 L 264.195312 535.582031 C 264.195312 535.582031 356.136719 1140.070312 364.25 1190.121094 C 372.972656 1244.136719 388.46875 1256.039062 447.890625 1272.882812 C 507.3125 1289.730469 567.894531 1299.554688 631.585938 1299.554688 C 695.28125 1299.554688 755.859375 1289.730469 815.28125 1272.882812 C 874.703125 1256.039062 890.199219 1244.136719 898.925781 1190.121094 C 907.039062 1140.011719 998.980469 535.582031 998.980469 535.582031 Z M 631.585938 535.582031 " fill-opacity="1" fill-rule="nonzero"/></g><g clip-path="url(#c31d9feb7d)"><path fill="#804828" d="M 767.332031 1069.515625 C 684.238281 1199.765625 504.875 1231.503906 371.203125 1219.722656 C 381.699219 1249.507812 401.28125 1259.640625 447.832031 1272.824219 C 507.253906 1289.667969 567.832031 1299.496094 631.527344 1299.496094 C 695.21875 1299.496094 755.800781 1289.667969 815.222656 1272.824219 C 874.644531 1255.976562 890.140625 1244.074219 898.863281 1190.058594 C 906.976562 1139.949219 998.917969 535.519531 998.917969 535.519531 L 901.976562 535.519531 C 883.855469 697.082031 844.566406 948.421875 767.332031 1069.453125 Z M 767.332031 1069.515625 " fill-opacity="1" fill-rule="nonzero"/></g><g clip-path="url(#7ef3b5ba6a)"><path fill="#ad6a45" d="M 631.585938 432.1875 C 442.460938 432.1875 264.195312 484.800781 264.195312 535.582031 C 264.195312 586.363281 494.988281 618.34375 631.585938 618.34375 C 768.183594 618.34375 998.980469 586.425781 998.980469 535.582031 C 998.980469 484.738281 820.710938 432.1875 631.585938 432.1875 Z M 631.585938 432.1875 " fill-opacity="1" fill-rule="nonzero"/></g><path fill="#804828" d="M 631.585938 455.320312 C 506.09375 455.320312 305.683594 485.472656 319.773438 535.582031 C 333.929688 585.8125 538.734375 590.148438 631.585938 590.148438 C 724.441406 590.148438 929.183594 585.753906 943.398438 535.582031 C 957.554688 485.472656 757.082031 455.320312 631.585938 455.320312 Z M 631.585938 455.320312 " fill-opacity="1" fill-rule="nonzero"/><path fill="#915736" d="M 360.160156 632.199219 C 384.382812 630.980469 402.074219 667.234375 420.742188 824.15625 C 447.832031 1051.691406 462.472656 1150.875 435.566406 1153.683594 C 408.664062 1156.492188 393.230469 1098.996094 360.160156 887.265625 C 331.792969 705.625 327.828125 633.847656 360.160156 632.261719 Z M 360.160156 632.199219 " fill-opacity="1" fill-rule="nonzero"/><path fill="#52271c" d="M 571.007812 583.617188 C 571.007812 583.617188 620.179688 596.921875 644.03125 622.863281 C 667.886719 648.800781 672.339844 644.957031 691.3125 632.140625 C 710.289062 619.320312 722.0625 613.765625 744.574219 615.84375 C 762.082031 617.492188 784.414062 629.878906 778.3125 676.816406 C 772.210938 723.753906 766.476562 768.675781 797.957031 770.078125 C 829.4375 771.480469 819.429688 728.695312 818.699219 700.679688 C 817.96875 672.667969 817.296875 606.015625 855 601.132812 C 892.703125 596.25 895.019531 636.898438 916.070312 638.304688 C 937.117188 639.707031 937.789062 588.011719 953.953125 567.625 C 970.121094 547.238281 982.933594 548.15625 987.632812 538.878906 C 992.328125 529.601562 974.820312 510.921875 974.820312 510.921875 C 974.820312 510.921875 951.941406 547.117188 907.464844 547.117188 C 862.992188 547.117188 837.550781 551.328125 818.636719 561.15625 C 799.726562 570.980469 755.738281 545.164062 727.003906 556.273438 C 659.710938 582.210938 570.882812 583.617188 570.882812 583.617188 Z M 571.007812 583.617188 " fill-opacity="1" fill-rule="nonzero"/><path fill="#704b3d" d="M 685.824219 622.738281 C 682.285156 624.019531 676.0625 626.339844 671.730469 626.460938 C 666.972656 626.585938 662.398438 624.386719 658.066406 622.679688 C 653.304688 620.847656 653.367188 622.984375 656.660156 625.851562 C 668.132812 635.863281 677.527344 634.273438 687.347656 626.15625 C 688.933594 624.875 691.007812 620.785156 685.824219 622.679688 Z M 685.824219 622.738281 " fill-opacity="1" fill-rule="nonzero"/><path fill="#704b3d" d="M 792.894531 668.820312 C 788.5 668.453125 783.191406 701.230469 783.558594 727.964844 C 783.925781 754.332031 787.160156 759.703125 793.382812 759.519531 C 799.726562 759.335938 798.933594 747.921875 797.894531 722.777344 C 797.042969 700.863281 795.882812 669.003906 792.832031 668.761719 Z M 792.894531 668.820312 " fill-opacity="1" fill-rule="nonzero"/><path fill="#704b3d" d="M 930.101562 612.546875 C 927.84375 611.753906 922.351562 620.421875 916.128906 620.421875 C 909.90625 620.421875 901.671875 613.035156 900.328125 616.027344 C 899.292969 618.34375 909.359375 630.429688 917.410156 629.878906 C 925.464844 629.332031 932.417969 613.339844 930.101562 612.546875 Z M 930.101562 612.546875 " fill-opacity="1" fill-rule="nonzero"/><g clip-path="url(#daa9dfd730)"><path fill="#ecd7bb" d="M 354.792969 564.695312 C 340.761719 555.175781 294.824219 548.339844 299.886719 495.117188 C 302.875 463.5625 343.445312 450.4375 360.160156 446.347656 C 364.066406 445.371094 366.75 444.578125 366.996094 437.621094 C 367.667969 418.578125 375.351562 367.917969 450.089844 360.351562 C 455.152344 359.863281 458.140625 359.679688 459.605469 350.339844 C 461.496094 338.132812 465.097656 316.527344 480.347656 304.929688 C 502.554688 288.085938 581.316406 284.972656 600.535156 272.339844 C 619.75 259.703125 619.75 237.609375 611.636719 218.6875 C 603.523438 199.765625 615.664062 196.59375 641.957031 206.054688 C 668.253906 215.515625 730.847656 239.683594 759.09375 265.992188 C 783.679688 288.878906 789.597656 303.832031 791.367188 330.808594 C 792.039062 341.367188 794.417969 342.40625 802.777344 341.734375 C 820.226562 340.332031 852.375 338.867188 876.230469 356.445312 C 897.765625 372.3125 898.191406 398.070312 899.046875 415.097656 C 899.78125 429.015625 901.792969 430.050781 913.140625 430.96875 C 929.671875 432.3125 954.625 435.058594 968.78125 455.320312 C 993.242188 490.292969 980.25 538.390625 941.875 551.023438 C 903.5 563.65625 872.203125 557.308594 852.011719 565.734375 C 831.816406 574.15625 814.671875 579.40625 785.328125 575.195312 C 755.984375 570.980469 734.8125 563.597656 716.632812 569.945312 C 698.453125 576.292969 652.023438 598.324219 603.523438 597.289062 C 555.023438 596.25 508.472656 590.023438 475.285156 590.148438 C 451.734375 590.207031 397.195312 593.441406 354.730469 564.695312 Z M 354.792969 564.695312 " fill-opacity="1" fill-rule="nonzero"/></g><path fill="#f7ebdb" d="M 867.507812 455.75 C 853.777344 463.074219 843.101562 477.539062 828.523438 484.921875 C 813.941406 492.308594 798.199219 497.128906 782.15625 499.144531 C 776.910156 499.816406 738.472656 503.78125 734.933594 496.640625 C 731.398438 489.5 753.910156 484.617188 764.828125 481.933594 C 778.25 478.636719 791.792969 474.609375 803.140625 466.488281 C 814.488281 458.371094 823.335938 445.3125 823.640625 430.96875 C 823.761719 425.414062 822.726562 419.371094 825.53125 414.671875 C 829.070312 408.75 837.0625 407.53125 841.515625 402.28125 C 846.886719 395.933594 844.871094 385.3125 839.015625 379.394531 C 833.21875 373.472656 824.800781 371.277344 816.746094 370.238281 C 795.027344 367.492188 773.1875 371.765625 751.40625 373.105469 C 729.628906 374.449219 688.507812 365.355469 688.628906 359.007812 C 688.753906 352.660156 713.214844 359.007812 737.984375 343.6875 C 747.382812 337.890625 755.738281 328.613281 756.835938 317.320312 C 758.363281 302.246094 745.917969 289.304688 732.679688 283.082031 C 719.4375 276.855469 704.554688 274.78125 691.679688 267.699219 C 681.859375 262.265625 673.5625 254.148438 663.675781 248.839844 C 653.792969 243.53125 640.859375 241.636719 632.074219 248.777344 C 620.667969 258.054688 621.582031 277.527344 610.722656 287.476562 C 606.511719 291.320312 600.777344 293.515625 598.15625 298.644531 C 595.46875 303.953125 597.117188 310.605469 595.410156 316.34375 C 590.589844 332.214844 565.578125 330.441406 557.949219 345.03125 C 555.9375 348.816406 555.386719 353.453125 552.824219 356.808594 C 550.445312 359.863281 546.726562 361.449219 544.039062 364.257812 C 531.777344 376.707031 565.820312 386.472656 572.652344 388.183594 C 573.386719 388.367188 574.117188 388.546875 574.726562 389.035156 C 576.925781 390.746094 574.542969 392.453125 572.835938 393.003906 C 561.367188 396.667969 549.347656 392.273438 537.941406 390.683594 C 526.46875 389.097656 515.0625 387.207031 503.59375 385.742188 C 479.800781 382.6875 453.078125 384.640625 436.054688 402.21875 C 430.503906 407.957031 426.234375 416.992188 429.957031 424.132812 C 432.210938 428.527344 436.847656 430.90625 441.242188 433.042969 C 469 446.59375 497.371094 460.265625 527.8125 464.050781 C 536.476562 465.085938 553.558594 466.367188 552.582031 471.3125 C 551.605469 476.253906 491.328125 475.890625 446 464.109375 C 426.722656 459.105469 406.285156 461.789062 386.394531 461.972656 C 375.65625 462.097656 364.796875 463.074219 354.792969 467.160156 C 328.558594 477.84375 328.011719 511.105469 344.238281 528.5625 C 352.292969 537.230469 363.699219 541.441406 374.804688 544.921875 C 391.945312 550.292969 409.457031 554.6875 427.210938 557.25 C 442.035156 559.445312 456.980469 560.363281 471.929688 561.277344 C 490.660156 562.4375 509.386719 563.597656 528.117188 564.816406 C 564.050781 567.074219 600.167969 569.335938 635.980469 565.183594 C 672.890625 560.910156 708.882812 549.863281 745.917969 547.117188 C 769.710938 545.347656 795.273438 546.566406 815.222656 533.019531 C 827.484375 524.65625 836.574219 511.289062 850.117188 505.550781 C 857.621094 502.316406 865.980469 501.769531 873.789062 499.511719 C 881.597656 497.25 889.652344 492.613281 892.457031 484.679688 C 897.644531 470.152344 881.78125 448.179688 867.6875 455.6875 Z M 867.507812 455.75 " fill-opacity="1" fill-rule="nonzero"/><path fill="#52271c" d="M 755.007812 342.710938 C 752.078125 342.46875 751.773438 331.90625 749.089844 315.613281 C 748.355469 311.582031 747.6875 306.882812 746.222656 303.953125 C 745.488281 302.429688 744.695312 301.511719 743.539062 300.660156 C 742.378906 299.804688 740.671875 299.070312 738.535156 298.460938 C 736.398438 297.851562 733.898438 297.484375 731.089844 296.996094 C 728.222656 296.507812 725.234375 296.019531 722.183594 295.347656 C 716.082031 294.066406 709.496094 292.234375 703.027344 288.941406 C 696.5 285.644531 690.703125 281.003906 686.25 275.023438 C 684.054688 272.09375 682.222656 268.738281 680.941406 265.257812 C 680.332031 263.550781 679.785156 261.65625 679.480469 260.070312 C 679.113281 258.421875 678.867188 256.957031 678.6875 255.675781 C 678.199219 253.050781 677.710938 251.21875 677.097656 250.121094 C 676.792969 249.570312 676.550781 249.207031 676 248.65625 C 675.453125 248.167969 674.71875 247.558594 673.867188 246.949219 C 669.960938 244.324219 665.996094 241.699219 662.640625 239.316406 C 648.914062 229.734375 640.921875 222.839844 642.386719 220.273438 C 643.851562 217.710938 653.613281 221.433594 668.4375 229.125 C 672.15625 231.078125 676.0625 233.152344 680.515625 235.65625 C 681.675781 236.328125 683.015625 237.183594 684.421875 238.339844 C 685.824219 239.441406 687.289062 241.089844 688.324219 242.796875 C 690.519531 246.277344 691.375 249.816406 692.046875 252.746094 C 692.71875 255.796875 693.144531 258.117188 694 260.070312 C 694.851562 262.144531 695.949219 264.160156 697.414062 266.050781 C 700.34375 269.835938 704.492188 273.191406 709.3125 275.632812 C 714.191406 278.136719 719.621094 279.722656 725.113281 281.003906 C 727.859375 281.617188 730.605469 282.164062 733.410156 282.714844 C 736.214844 283.261719 739.265625 283.8125 742.378906 284.789062 C 745.488281 285.765625 748.785156 287.230469 751.652344 289.671875 C 754.578125 292.050781 756.835938 295.46875 757.933594 298.582031 C 759.15625 301.695312 759.582031 304.625 759.949219 307.1875 C 760.253906 309.753906 760.375 312.011719 760.496094 314.269531 C 760.863281 323.242188 760.132812 330.441406 759.035156 335.324219 C 757.933594 340.207031 756.472656 342.773438 755.066406 342.648438 Z M 755.007812 342.710938 " fill-opacity="1" fill-rule="nonzero"/><path fill="#52271c" d="M 848.289062 368.710938 C 846.824219 369.992188 844.6875 369.566406 841.945312 369.324219 C 839.199219 369.015625 835.539062 368.652344 830.777344 369.324219 C 826.019531 370.054688 820.042969 371.886719 813.332031 375.121094 C 806.558594 378.234375 798.933594 382.8125 789.597656 387.023438 C 780.324219 391.171875 769.648438 393.980469 759.582031 392.820312 C 754.578125 392.332031 749.699219 390.808594 745.488281 388.488281 C 743.414062 387.328125 741.402344 385.863281 739.695312 384.398438 C 738.046875 382.8125 736.523438 381.222656 735.363281 379.515625 C 730.480469 372.742188 729.566406 365.355469 730.542969 360.777344 C 731.578125 356.078125 733.960938 354.308594 735.667969 354.855469 C 737.558594 355.40625 738.472656 357.605469 739.875 360.289062 C 741.339844 362.914062 743.292969 366.269531 746.769531 369.140625 C 747.625 369.871094 748.601562 370.480469 749.515625 371.09375 C 750.554688 371.640625 751.46875 372.128906 752.75 372.558594 C 755.128906 373.410156 757.875 373.960938 760.984375 374.023438 C 767.207031 374.207031 774.347656 372.375 782.214844 368.835938 C 790.085938 365.355469 798.140625 360.839844 806.4375 357.664062 C 814.734375 354.492188 823.214844 352.84375 830.65625 353.574219 C 838.101562 354.246094 844.019531 357.542969 846.886719 361.023438 C 849.8125 364.5625 849.753906 367.550781 848.289062 368.710938 Z M 848.289062 368.710938 " fill-opacity="1" fill-rule="nonzero"/><path fill="#52271c" d="M 623.59375 494.566406 C 622.800781 494.078125 622.621094 492.429688 623.71875 489.804688 C 624.816406 487.179688 627.5 483.703125 631.953125 480.832031 C 636.347656 478.027344 642.628906 475.828125 649.769531 475.523438 C 656.84375 475.15625 664.53125 476.4375 672.097656 477.71875 C 679.539062 478.941406 687.410156 479.917969 694 478.085938 C 697.230469 477.230469 700.160156 475.523438 703.210938 472.960938 C 706.261719 470.398438 709.25 466.980469 712.484375 462.949219 C 715.71875 458.984375 719.132812 454.464844 723.464844 449.949219 C 727.734375 445.496094 733.164062 440.671875 740.671875 437.988281 C 744.390625 436.707031 747.992188 436.15625 751.347656 435.851562 C 754.640625 435.605469 757.691406 435.546875 760.863281 435.605469 C 767.085938 435.667969 773.125 436.15625 778.984375 436.460938 C 784.839844 436.828125 790.390625 437.011719 795.578125 436.707031 C 800.886719 436.398438 805.398438 435.605469 810.464844 434.082031 C 815.527344 432.617188 820.894531 430.664062 826.8125 429.257812 C 829.804688 428.527344 832.792969 427.976562 836.085938 427.671875 C 839.441406 427.429688 842.738281 427.488281 845.96875 427.976562 C 852.4375 428.953125 859.085938 431.515625 864.457031 436.707031 C 867.078125 439.269531 869.335938 442.503906 870.679688 445.859375 C 872.082031 449.15625 872.691406 452.269531 873.117188 454.953125 C 873.910156 460.324219 874.21875 464.476562 875.132812 466.917969 C 875.558594 468.136719 875.984375 468.871094 876.472656 469.601562 C 877.023438 470.273438 878 471.066406 879.28125 471.800781 C 880.621094 472.59375 882.210938 473.328125 883.917969 474.179688 C 885.6875 475.035156 887.578125 476.011719 889.226562 476.988281 C 892.640625 478.941406 895.691406 481.078125 898.375 483.273438 C 903.746094 487.667969 907.648438 492.1875 910.457031 496.152344 C 915.945312 504.210938 916.984375 509.765625 915.457031 510.742188 C 913.75 511.839844 910.152344 508.238281 903.621094 502.867188 C 900.328125 500.179688 896.242188 497.128906 891.238281 494.199219 C 888.738281 492.734375 885.992188 491.332031 883.0625 490.109375 C 881.539062 489.4375 880.074219 488.890625 878.425781 488.28125 C 876.71875 487.667969 874.765625 486.996094 872.570312 486.019531 C 870.375 484.984375 867.933594 483.640625 865.554688 481.382812 C 863.234375 479.125 861.34375 476.195312 860.125 473.328125 C 857.746094 467.527344 857.316406 462.339844 856.402344 458.3125 C 855.976562 456.296875 855.425781 454.589844 854.816406 453.367188 C 854.207031 452.148438 853.535156 451.230469 852.496094 450.316406 C 850.484375 448.546875 847.191406 447.203125 843.40625 446.777344 C 841.515625 446.53125 839.503906 446.53125 837.550781 446.777344 C 835.597656 447.019531 833.28125 447.449219 830.960938 448.058594 C 826.324219 449.277344 821.261719 451.171875 815.464844 452.941406 C 809.730469 454.773438 802.898438 456.054688 796.554688 456.417969 C 790.148438 456.785156 783.863281 456.542969 777.761719 456.238281 C 771.664062 455.871094 765.925781 455.441406 760.496094 455.320312 C 757.8125 455.320312 755.066406 455.320312 752.628906 455.441406 C 750.25 455.625 748.175781 455.929688 746.527344 456.542969 C 743.230469 457.640625 739.753906 460.265625 736.339844 463.683594 C 732.921875 467.101562 729.628906 471.191406 726.027344 475.339844 C 722.488281 479.492188 718.585938 483.761719 713.886719 487.484375 C 709.191406 491.148438 703.515625 494.140625 697.78125 495.296875 C 692.109375 496.519531 686.738281 496.398438 681.980469 495.847656 C 677.222656 495.296875 672.890625 494.261719 668.984375 493.222656 C 661.238281 491.148438 654.894531 489.316406 649.402344 488.769531 C 643.972656 488.097656 639.457031 488.707031 635.796875 489.683594 C 628.476562 491.757812 625.242188 495.664062 623.472656 494.628906 Z M 623.59375 494.566406 " fill-opacity="1" fill-rule="nonzero"/><path fill="#52271c" d="M 714.621094 342.773438 C 714.621094 344.847656 710.289062 345.945312 703.636719 348.816406 C 700.34375 350.28125 696.4375 352.234375 692.414062 355.164062 C 688.386719 358.09375 684.542969 361.9375 680.515625 367.308594 C 676.488281 372.558594 672.585938 379.210938 667.519531 386.59375 C 664.957031 390.320312 662.089844 394.164062 658.613281 397.949219 C 655.199219 401.671875 651.109375 405.394531 646.167969 408.445312 C 643.667969 409.972656 640.984375 411.316406 638.117188 412.351562 C 635.1875 413.449219 632.136719 414.121094 629.269531 414.488281 C 626.402344 414.914062 623.59375 415.039062 621.03125 415.160156 C 618.53125 415.222656 615.96875 415.34375 613.40625 415.402344 C 603.21875 415.710938 592.726562 416.015625 581.925781 416.378906 C 576.679688 416.503906 571.984375 416.867188 568.078125 417.84375 C 564.171875 418.820312 561.183594 420.53125 558.253906 423.035156 C 552.519531 428.097656 548.617188 436.035156 546.726562 443.90625 C 545.75 447.996094 545.078125 452.636719 544.101562 457.519531 C 543.125 462.402344 541.722656 467.648438 539.28125 472.59375 C 536.78125 477.597656 533.425781 481.566406 530.070312 484.738281 C 526.714844 487.914062 523.359375 490.355469 520.246094 492.429688 C 517.136719 494.503906 514.269531 496.335938 511.644531 497.984375 C 509.023438 499.632812 506.886719 501.15625 504.875 502.746094 C 500.847656 505.859375 497.980469 508.96875 495.964844 511.65625 C 492 517.027344 491.390625 521.300781 489.378906 521.542969 C 488.460938 521.605469 487.425781 520.566406 486.816406 518.125 C 486.203125 515.683594 486.203125 511.777344 487.667969 507.261719 C 489.195312 502.746094 492.121094 497.738281 496.394531 493.039062 C 498.46875 490.660156 501.03125 488.339844 503.59375 486.144531 C 506.09375 484.066406 508.71875 481.933594 511.460938 479.613281 C 516.769531 475.21875 521.773438 470.398438 524.152344 464.71875 C 525.371094 461.851562 526.226562 458.3125 526.835938 454.101562 C 527.507812 449.890625 527.996094 445.066406 529.09375 439.695312 C 530.253906 434.203125 532.082031 428.648438 534.828125 423.277344 C 537.574219 417.90625 541.171875 412.71875 546.054688 408.261719 C 548.496094 406.066406 551.238281 404.113281 554.230469 402.464844 C 557.21875 400.816406 560.453125 399.65625 563.5625 398.800781 C 569.847656 397.15625 575.886719 396.847656 581.4375 396.667969 C 592.238281 396.421875 602.792969 396.179688 612.980469 395.871094 C 615.480469 395.871094 617.984375 395.75 620.484375 395.75 C 622.863281 395.75 625.058594 395.566406 627.011719 395.382812 C 629.023438 395.140625 630.734375 394.835938 632.378906 394.285156 C 634.027344 393.738281 635.675781 393.003906 637.261719 392.089844 C 643.667969 388.425781 649.21875 382.261719 654.160156 375.976562 C 659.164062 369.503906 663.921875 362.730469 669.230469 356.992188 C 674.476562 351.195312 680.515625 346.496094 686.25 343.808594 C 691.984375 341.003906 697.292969 339.78125 701.625 339.414062 C 705.957031 339.050781 709.3125 339.476562 711.507812 340.207031 C 713.703125 340.941406 714.800781 341.917969 714.800781 342.832031 Z M 714.621094 342.773438 " fill-opacity="1" fill-rule="nonzero"/><path fill="#52271c" d="M 429.527344 441.160156 C 431.359375 441.710938 432.394531 443.785156 432.578125 447.386719 C 432.699219 450.925781 432.210938 456.175781 428.734375 462.765625 C 426.964844 466.003906 424.097656 469.542969 420.316406 472.105469 C 416.59375 474.730469 412.445312 476.316406 408.480469 477.476562 C 406.527344 478.085938 404.574219 478.515625 402.683594 479.003906 C 400.914062 479.429688 399.085938 479.917969 397.253906 480.34375 C 393.65625 481.261719 389.996094 482.359375 386.457031 483.578125 C 379.378906 486.082031 373.402344 489.4375 368.945312 493.222656 C 364.554688 496.945312 361.441406 501.402344 359.367188 505.308594 C 357.292969 509.214844 356.195312 512.695312 355.160156 515.378906 C 354.183594 518.003906 353.207031 520.019531 351.316406 520.507812 C 349.546875 520.996094 347.410156 519.710938 345.824219 516.113281 C 344.238281 512.570312 343.507812 506.652344 345.09375 499.875 C 346.617188 493.101562 350.402344 485.59375 356.804688 479.183594 C 363.152344 472.835938 371.449219 468.078125 380.171875 464.964844 C 384.566406 463.378906 388.835938 462.21875 392.921875 461.300781 C 397.011719 460.386719 400.914062 459.777344 403.964844 459.167969 C 407.078125 458.554688 409.519531 457.824219 411.410156 456.96875 C 413.300781 456.113281 414.703125 455.078125 416.230469 453.613281 C 419.097656 450.683594 421.414062 446.898438 423.550781 444.394531 C 425.683594 441.894531 427.636719 440.550781 429.46875 441.101562 Z M 429.527344 441.160156 " fill-opacity="1" fill-rule="nonzero"/><path fill="#52271c" d="M 641.898438 267.636719 C 643.726562 268.003906 644.519531 272.519531 643.726562 280.457031 C 643.546875 282.410156 643.238281 284.605469 642.75 286.988281 C 642.324219 289.304688 641.835938 291.929688 640.675781 295.226562 C 640.066406 296.8125 639.273438 298.582031 638.054688 300.351562 C 636.835938 302.125 635.1875 303.894531 633.480469 305.175781 C 631.769531 306.519531 630 307.554688 628.292969 308.410156 C 626.585938 309.265625 625 309.9375 623.230469 310.605469 C 616.273438 313.292969 608.160156 315 599.375 314.941406 C 594.984375 314.941406 590.40625 314.453125 585.832031 313.414062 C 581.253906 312.4375 577.046875 311.035156 573.019531 309.9375 C 569.054688 308.777344 565.273438 307.859375 561.855469 307.617188 C 558.5 307.371094 554.777344 307.800781 550.691406 308.714844 C 542.578125 310.546875 534.339844 313.964844 527.261719 318.96875 C 520.125 323.972656 514.632812 330.382812 511.765625 337.402344 L 511.21875 338.683594 L 510.792969 340.027344 C 510.484375 340.941406 510.179688 341.796875 510 342.710938 C 509.511719 344.601562 509.144531 346.738281 508.777344 348.996094 C 508.046875 353.515625 507.253906 358.886719 505.238281 364.378906 C 504.203125 367.0625 502.921875 369.8125 501.089844 372.375 C 499.320312 374.9375 497.003906 377.378906 494.257812 379.210938 C 491.574219 381.042969 488.707031 382.199219 486.023438 382.871094 C 483.335938 383.542969 480.773438 383.847656 478.457031 383.910156 C 473.820312 384.03125 469.855469 383.605469 466.4375 383.359375 C 463.082031 383.054688 459.972656 382.933594 457.042969 382.996094 C 451.246094 383.117188 446.304688 384.03125 442.339844 385.558594 C 438.375 387.082031 435.261719 389.21875 432.882812 391.234375 C 428.1875 395.261719 426.476562 398.984375 424.464844 398.558594 C 423.550781 398.375 422.816406 397.15625 422.757812 394.773438 C 422.757812 392.453125 423.425781 388.976562 425.5625 385.070312 C 427.757812 381.222656 431.359375 377.074219 436.605469 373.71875 C 441.914062 370.359375 448.5625 368.164062 455.761719 367.1875 C 459.359375 366.699219 463.144531 366.515625 466.925781 366.453125 C 470.648438 366.453125 474.1875 366.515625 477.296875 366.210938 C 480.410156 365.90625 482.789062 365.109375 484.253906 363.890625 C 485.65625 362.792969 487.058594 360.714844 488.097656 357.605469 C 489.132812 354.550781 489.683594 350.707031 490.351562 345.886719 C 490.71875 343.503906 491.085938 340.878906 491.695312 338.074219 C 492 336.667969 492.425781 335.265625 492.855469 333.800781 L 493.527344 331.664062 L 494.378906 329.589844 C 498.832031 318.417969 507.070312 309.140625 516.527344 302.550781 C 526.042969 295.835938 536.414062 291.746094 546.726562 289.550781 C 551.910156 288.453125 557.523438 287.839844 563.195312 288.390625 C 568.808594 288.941406 573.691406 290.40625 578.023438 291.746094 C 582.355469 293.152344 586.136719 294.554688 589.613281 295.46875 C 593.03125 296.445312 596.445312 296.933594 599.800781 297.242188 C 606.511719 297.730469 612.859375 296.996094 618.46875 295.53125 C 619.875 295.164062 621.277344 294.738281 622.496094 294.371094 C 623.71875 293.945312 624.695312 293.515625 625.488281 293.152344 C 626.28125 292.722656 626.828125 292.359375 627.378906 291.808594 C 627.925781 291.257812 628.535156 290.527344 629.023438 289.609375 C 630.0625 287.902344 631.039062 285.644531 631.953125 283.507812 C 632.867188 281.433594 633.722656 279.539062 634.515625 277.832031 C 637.628906 270.996094 639.824219 267.148438 641.714844 267.515625 Z M 641.898438 267.636719 " fill-opacity="1" fill-rule="nonzero"/><path fill="#84635e" d="M 632.867188 357.421875 L 615.601562 342.160156 C 614.320312 341.0625 614.503906 338.621094 616.03125 336.789062 C 617.554688 334.960938 619.75 334.347656 621.03125 335.449219 L 638.296875 350.707031 C 639.578125 351.804688 639.394531 354.246094 637.871094 356.078125 C 636.347656 357.910156 634.148438 358.519531 632.867188 357.421875 Z M 632.867188 357.421875 " fill-opacity="1" fill-rule="nonzero"/><path fill="#a5817e" d="M 632.808594 354.1875 L 619.324219 342.34375 C 618.59375 341.734375 618.714844 340.332031 619.570312 339.292969 C 620.421875 338.253906 621.703125 337.890625 622.4375 338.5625 L 635.917969 350.402344 C 636.652344 351.011719 636.527344 352.414062 635.675781 353.453125 C 634.820312 354.492188 633.539062 354.855469 632.808594 354.1875 Z M 632.808594 354.1875 " fill-opacity="1" fill-rule="nonzero"/><path fill="#84635e" d="M 679.171875 327.695312 L 697.964844 313.414062 C 699.304688 312.378906 701.5625 313.109375 702.90625 315.0625 C 704.25 317.015625 704.25 319.457031 702.90625 320.496094 L 684.117188 334.777344 C 682.773438 335.8125 680.515625 335.082031 679.171875 333.128906 C 677.832031 331.175781 677.832031 328.734375 679.171875 327.695312 Z M 679.171875 327.695312 " fill-opacity="1" fill-rule="nonzero"/><path fill="#a5817e" d="M 682.222656 328.367188 L 696.867188 317.261719 C 697.660156 316.648438 698.941406 317.078125 699.671875 318.175781 C 700.464844 319.273438 700.464844 320.679688 699.671875 321.289062 L 685.03125 332.394531 C 684.238281 333.007812 682.957031 332.578125 682.222656 331.480469 C 681.429688 330.382812 681.429688 328.976562 682.222656 328.367188 Z M 682.222656 328.367188 " fill-opacity="1" fill-rule="nonzero"/><path fill="#84635e" d="M 561.671875 360.105469 L 535.5 350.523438 C 533.609375 349.851562 532.632812 347.410156 533.425781 345.152344 C 534.21875 342.894531 536.355469 341.613281 538.304688 342.285156 L 564.476562 351.867188 C 566.371094 352.539062 567.347656 354.980469 566.550781 357.238281 C 565.757812 359.496094 563.625 360.777344 561.671875 360.105469 Z M 561.671875 360.105469 " fill-opacity="1" fill-rule="nonzero"/><path fill="#a5817e" d="M 560.085938 356.933594 L 539.710938 349.484375 C 538.609375 349.058594 538.121094 347.714844 538.550781 346.433594 C 538.976562 345.152344 540.195312 344.421875 541.296875 344.785156 L 561.671875 352.234375 C 562.769531 352.660156 563.257812 354.003906 562.832031 355.285156 C 562.402344 356.566406 561.183594 357.296875 560.085938 356.933594 Z M 560.085938 356.933594 " fill-opacity="1" fill-rule="nonzero"/><path fill="#84635e" d="M 464.730469 416.074219 L 487.851562 403.625 C 489.558594 402.707031 491.757812 403.746094 492.855469 405.882812 C 493.953125 408.019531 493.402344 410.519531 491.757812 411.4375 L 468.632812 423.886719 C 466.925781 424.804688 464.730469 423.765625 463.632812 421.628906 C 462.535156 419.492188 463.082031 416.992188 464.730469 416.074219 Z M 464.730469 416.074219 " fill-opacity="1" fill-rule="nonzero"/><path fill="#a5817e" d="M 467.839844 417.175781 L 485.839844 407.46875 C 486.816406 406.980469 488.097656 407.46875 488.707031 408.75 C 489.316406 409.972656 489.011719 411.375 488.097656 411.925781 L 470.097656 421.628906 C 469.121094 422.117188 467.839844 421.628906 467.230469 420.347656 C 466.621094 419.128906 466.925781 417.722656 467.839844 417.175781 Z M 467.839844 417.175781 " fill-opacity="1" fill-rule="nonzero"/><path fill="#84635e" d="M 424.832031 530.273438 L 401.039062 516.601562 C 399.328125 515.625 398.78125 513.058594 399.9375 510.984375 C 401.039062 508.847656 403.355469 507.933594 405.125 508.96875 L 428.917969 522.640625 C 430.625 523.617188 431.175781 526.183594 430.015625 528.257812 C 428.855469 530.332031 426.601562 531.308594 424.832031 530.273438 Z M 424.832031 530.273438 " fill-opacity="1" fill-rule="nonzero"/><path fill="#a5817e" d="M 423.792969 526.855469 L 405.246094 516.171875 C 404.269531 515.625 403.964844 514.160156 404.636719 512.9375 C 405.308594 511.71875 406.589844 511.230469 407.566406 511.777344 L 426.113281 522.460938 C 427.089844 523.007812 427.394531 524.472656 426.722656 525.695312 C 426.050781 526.914062 424.769531 527.402344 423.792969 526.855469 Z M 423.792969 526.855469 " fill-opacity="1" fill-rule="nonzero"/><path fill="#84635e" d="M 577.71875 541.257812 L 556.914062 520.628906 C 555.386719 519.101562 555.449219 516.476562 557.035156 514.707031 C 558.621094 512.9375 561.183594 512.753906 562.710938 514.28125 L 583.511719 534.910156 C 585.039062 536.4375 584.976562 539.0625 583.390625 540.832031 C 581.804688 542.601562 579.242188 542.785156 577.71875 541.257812 Z M 577.71875 541.257812 " fill-opacity="1" fill-rule="nonzero"/><path fill="#a5817e" d="M 577.414062 537.65625 L 561.183594 521.605469 C 560.328125 520.75 560.328125 519.222656 561.246094 518.246094 C 562.160156 517.269531 563.625 517.148438 564.476562 518.003906 L 580.707031 534.054688 C 581.5625 534.910156 581.5625 536.4375 580.644531 537.414062 C 579.730469 538.390625 578.265625 538.511719 577.414062 537.65625 Z M 577.414062 537.65625 " fill-opacity="1" fill-rule="nonzero"/><path fill="#84635e" d="M 681.734375 530.578125 L 651.414062 538.753906 C 649.21875 539.367188 646.960938 537.960938 646.351562 535.582031 C 645.742188 533.203125 647.082031 530.882812 649.28125 530.273438 L 679.601562 522.09375 C 681.796875 521.484375 684.054688 522.886719 684.664062 525.265625 C 685.273438 527.585938 683.933594 529.964844 681.734375 530.578125 Z M 681.734375 530.578125 " fill-opacity="1" fill-rule="nonzero"/><path fill="#a5817e" d="M 678.441406 528.929688 L 654.832031 535.277344 C 653.550781 535.644531 652.269531 534.789062 651.964844 533.507812 C 651.660156 532.226562 652.390625 530.820312 653.671875 530.453125 L 677.28125 524.105469 C 678.5625 523.742188 679.84375 524.59375 680.148438 525.878906 C 680.453125 527.160156 679.722656 528.5625 678.441406 528.929688 Z M 678.441406 528.929688 " fill-opacity="1" fill-rule="nonzero"/><path fill="#84635e" d="M 796.492188 506.527344 L 773.613281 522.949219 C 771.96875 524.167969 769.527344 523.496094 768.183594 521.484375 C 766.84375 519.46875 767.148438 516.90625 768.855469 515.683594 L 791.734375 499.265625 C 793.382812 498.046875 795.820312 498.714844 797.164062 500.730469 C 798.503906 502.746094 798.199219 505.308594 796.492188 506.527344 Z M 796.492188 506.527344 " fill-opacity="1" fill-rule="nonzero"/><path fill="#a5817e" d="M 793.074219 505.980469 L 775.261719 518.734375 C 774.285156 519.40625 772.941406 519.042969 772.210938 517.941406 C 771.480469 516.78125 771.601562 515.316406 772.578125 514.648438 L 790.390625 501.890625 C 791.367188 501.21875 792.710938 501.585938 793.441406 502.683594 C 794.175781 503.84375 794.050781 505.308594 793.074219 505.980469 Z M 793.074219 505.980469 " fill-opacity="1" fill-rule="nonzero"/><path fill="#84635e" d="M 688.386719 449.707031 L 666.058594 433.289062 C 664.410156 432.066406 664.164062 429.503906 665.507812 427.550781 C 666.851562 425.597656 669.230469 424.925781 670.875 426.144531 L 693.207031 442.566406 C 694.851562 443.785156 695.097656 446.347656 693.753906 448.300781 C 692.414062 450.253906 690.035156 450.925781 688.386719 449.707031 Z M 688.386719 449.707031 " fill-opacity="1" fill-rule="nonzero"/><path fill="#a5817e" d="M 687.777344 446.226562 L 670.386719 433.46875 C 669.472656 432.800781 669.351562 431.335938 670.082031 430.175781 C 670.816406 429.074219 672.21875 428.710938 673.132812 429.382812 L 690.519531 442.136719 C 691.4375 442.808594 691.558594 444.273438 690.828125 445.433594 C 690.09375 446.53125 688.691406 446.898438 687.777344 446.226562 Z M 687.777344 446.226562 " fill-opacity="1" fill-rule="nonzero"/><path fill="#84635e" d="M 610.234375 463.925781 L 578.753906 450.253906 C 576.4375 449.277344 575.339844 446.652344 576.191406 444.394531 C 577.105469 442.136719 579.667969 441.160156 581.988281 442.136719 L 613.46875 455.808594 C 615.785156 456.785156 616.882812 459.410156 616.03125 461.667969 C 615.113281 463.925781 612.554688 464.902344 610.234375 463.925781 Z M 610.234375 463.925781 " fill-opacity="1" fill-rule="nonzero"/><path fill="#a5817e" d="M 608.28125 460.449219 L 583.757812 449.765625 C 582.476562 449.21875 581.804688 447.691406 582.292969 446.410156 C 582.78125 445.128906 584.246094 444.578125 585.585938 445.128906 L 610.113281 455.808594 C 611.394531 456.359375 612.066406 457.882812 611.578125 459.167969 C 611.089844 460.449219 609.625 460.996094 608.28125 460.449219 Z M 608.28125 460.449219 " fill-opacity="1" fill-rule="nonzero"/><path fill="#84635e" d="M 755.921875 421.445312 L 729.628906 414.246094 C 727.734375 413.695312 726.636719 411.375 727.25 409.054688 C 727.859375 406.738281 729.871094 405.273438 731.824219 405.761719 L 758.117188 412.960938 C 760.007812 413.511719 761.109375 415.832031 760.496094 418.152344 C 759.886719 420.46875 757.875 421.933594 755.921875 421.445312 Z M 755.921875 421.445312 " fill-opacity="1" fill-rule="nonzero"/><path fill="#a5817e" d="M 754.152344 418.394531 L 733.652344 412.78125 C 732.554688 412.472656 731.945312 411.132812 732.3125 409.851562 C 732.679688 408.507812 733.835938 407.714844 734.875 407.957031 L 755.371094 413.574219 C 756.472656 413.878906 757.082031 415.222656 756.714844 416.503906 C 756.347656 417.84375 755.191406 418.640625 754.152344 418.394531 Z M 754.152344 418.394531 " fill-opacity="1" fill-rule="nonzero"/><path fill="#84635e" d="M 807.109375 412.414062 L 823.214844 387.816406 C 824.375 386.046875 826.875 385.679688 828.828125 387.023438 C 830.71875 388.367188 831.328125 390.929688 830.167969 392.761719 L 814.0625 417.355469 C 812.902344 419.128906 810.402344 419.492188 808.449219 418.152344 C 806.558594 416.808594 805.949219 414.246094 807.109375 412.414062 Z M 807.109375 412.414062 " fill-opacity="1" fill-rule="nonzero"/><path fill="#a5817e" d="M 810.464844 411.558594 L 822.96875 392.394531 C 823.640625 391.355469 825.042969 391.171875 826.140625 391.964844 C 827.242188 392.761719 827.605469 394.226562 826.933594 395.203125 L 814.429688 414.367188 C 813.757812 415.402344 812.355469 415.585938 811.257812 414.792969 C 810.160156 414 809.792969 412.535156 810.464844 411.558594 Z M 810.464844 411.558594 " fill-opacity="1" fill-rule="nonzero"/></svg>